<svg width="148" height="38" viewBox="0 0 148 38" fill="none"
  xmlns="http://www.w3.org/2000/svg">
  <g id="ps-logo-brand" clip-path="url(#clip0_4075_15778)">
    <g id="Tailhouse_-_Ink">
      <path id="Vector" d="M138.413 13.7885L128.759 8.64186C128.717 8.62106 128.67 8.59507 128.629 8.57947C128.399 8.4963 128.148 8.4963 127.919 8.57947C127.872 8.59507 127.83 8.61586 127.788 8.64186L118.103 13.7885C117.727 13.9548 117.487 14.324 117.487 14.7346V27.7936C117.487 28.3654 117.951 28.8281 118.526 28.8281H123.282C123.966 28.7657 124.786 28.6566 125.658 28.3134C126.9 27.8248 128.18 26.8058 128.08 25.4802C127.997 24.4093 127.005 23.6035 125.971 23.2968C124.937 22.9953 123.836 23.0628 122.76 22.9745C122.191 22.9277 121.554 22.8029 121.35 22.1479C121.23 21.7632 121.329 21.3473 121.58 21.0354C123.428 18.7324 127.778 17.9942 130.487 18.6908C133.098 19.3614 135.312 21.3161 135.317 24.1545C135.317 25.5946 134.33 27.804 131.761 28.433C131.584 28.4694 131.552 28.5734 131.552 28.6773C131.552 28.7553 131.615 28.8229 131.693 28.8229H138.001C138.575 28.8229 139.04 28.3602 139.04 27.7884V14.7294C139.04 14.3188 138.799 13.9497 138.424 13.7833L138.413 13.7885Z" fill="#083874"/>
    </g>
    <g id="Wordmark_-_Ink">
      <path id="Vector_2" d="M9.27881 9.41111C9.27881 8.92244 9.67562 8.52734 10.1664 8.52734H18.6456C24.0391 8.52734 25.971 12.9878 25.971 15.8886C25.971 20.5258 23.3604 23.567 19.6272 23.567H16.0872C15.8523 23.567 15.6643 23.7541 15.6643 23.988V27.7518C15.6643 28.2873 15.231 28.7188 14.6932 28.7188H10.1299C9.65996 28.7188 9.28403 28.3393 9.28403 27.8766V9.41111H9.27881ZM17.6432 18.5295C19.1521 18.5295 19.9196 17.469 19.9196 16.029C19.9196 14.5889 19.1834 13.5284 17.7319 13.5284H16.1656C15.8888 13.5284 15.6643 13.752 15.6643 14.0275V17.9784C15.6643 18.2852 15.9149 18.5295 16.2178 18.5295H17.6432Z" fill="#083874"/>
      <path id="Vector_3" d="M70.5757 22.782C70.4451 30.3668 60.1907 30.2837 55.8415 26.8214C55.5334 26.577 55.4551 26.1455 55.6483 25.8076C56.113 24.9863 57.0006 23.4007 57.4966 22.5221C57.6741 22.205 58.097 22.1114 58.3894 22.3298C59.2091 22.9328 60.8799 23.9465 62.8483 23.9881C63.5636 23.9881 64.4199 23.8062 64.4199 22.9484C64.4199 22.1634 63.621 21.8619 62.3001 21.3576C59.4023 20.3907 55.6013 18.41 55.7892 14.719C55.7422 7.97117 65.1613 7.24336 69.5001 10.1234C69.9178 10.3989 70.0796 10.9292 69.8917 11.3867C69.5419 12.2236 68.9571 13.6429 68.5759 14.5578C68.3984 14.9893 67.8711 15.1557 67.4743 14.9113C66.618 14.3811 65.1247 13.6325 63.5688 13.6325C62.4619 13.6325 61.945 13.9548 61.945 14.641C61.945 15.3896 62.7125 15.6703 63.8716 16.0966C66.9156 17.1103 70.748 18.9922 70.5704 22.7872L70.5757 22.782Z" fill="#083874"/>
      <path id="Vector_4" d="M34.4868 13.2944C39.2746 13.2944 41.6659 16.372 41.6659 20.2658C41.6659 20.6141 41.6346 21.1132 41.6032 21.5031C41.5771 21.8566 41.2795 22.1269 40.9245 22.1269C40.9245 22.1269 34.3667 22.1269 32.7846 22.1269C32.6019 22.1269 32.4661 22.2932 32.5131 22.47C32.863 23.8736 34.0534 24.4507 35.5675 24.4507C37.0817 24.4507 38.3348 23.884 39.0292 23.4785C39.3633 23.2862 39.7915 23.411 39.9742 23.7541C39.9742 23.7541 40.8618 25.454 41.3422 26.3742C41.5249 26.7225 41.4048 27.1436 41.0759 27.3515C40.1517 27.939 38.1103 28.9527 35.0767 28.9527C29.0671 28.9527 26.3208 25.0901 26.3208 21.108C26.3208 16.7515 29.3282 13.2944 34.492 13.2944H34.4868ZM35.8025 19.0753C36.0166 19.0753 36.1784 18.8881 36.1419 18.6802C35.98 17.6977 35.3117 17.0998 34.4554 17.0998C33.4634 17.0998 32.8421 17.7289 32.6019 18.7166C32.5549 18.8985 32.7011 19.0753 32.8891 19.0753H35.8025Z" fill="#083874"/>
      <path id="Vector_5" d="M106.054 13.2944C110.841 13.2944 113.233 16.372 113.233 20.2658C113.233 20.6141 113.201 21.1132 113.17 21.5031C113.144 21.8566 112.846 22.1269 112.491 22.1269C112.491 22.1269 105.934 22.1269 104.352 22.1269C104.169 22.1269 104.033 22.2932 104.08 22.47C104.43 23.8736 105.62 24.4507 107.134 24.4507C108.649 24.4507 109.902 23.884 110.596 23.4785C110.93 23.2862 111.358 23.411 111.541 23.7541C111.541 23.7541 112.429 25.454 112.909 26.3742C113.092 26.7225 112.972 27.1436 112.643 27.3515C111.719 27.939 109.677 28.9527 106.644 28.9527C100.634 28.9527 97.8877 25.0901 97.8877 21.108C97.8877 16.7515 100.895 13.2944 106.059 13.2944H106.054ZM107.369 19.0753C107.583 19.0753 107.745 18.8881 107.709 18.6802C107.547 17.6977 106.879 17.0998 106.022 17.0998C105.03 17.0998 104.409 17.7289 104.169 18.7166C104.122 18.8985 104.268 19.0753 104.456 19.0753H107.369Z" fill="#083874"/>
      <path id="Vector_6" d="M79.7702 19.2782C79.8328 19.2782 79.885 19.2262 79.885 19.1638V19.0183C79.885 18.0617 79.1854 17.6822 78.0158 17.6822C76.6792 17.6822 75.2852 18.2645 74.5229 18.644C74.1939 18.8051 73.8023 18.6648 73.6561 18.3321L72.5075 15.712C72.3352 15.3169 72.497 14.8542 72.8886 14.6618C73.912 14.1472 76.0579 13.2998 79.0131 13.2998C83.4198 13.2998 85.9886 15.3897 85.9886 19.2574V28.0119C85.9886 28.3446 85.7171 28.6097 85.3882 28.6097H80.9397C80.6525 28.6097 80.4176 28.3758 80.4176 28.0899V27.7104C80.4176 27.3049 80.475 26.8682 80.475 26.8682H80.4176C80.4176 26.8682 79.2794 28.9581 76.3033 28.9581C73.7658 28.9581 71.2544 27.3621 71.2544 24.2533C71.2544 19.6057 77.4415 19.2834 79.7754 19.2834L79.7702 19.2782ZM78.0785 24.9707C79.2167 24.9707 80.0312 23.8374 80.0312 22.7925V22.6781C80.0312 22.4702 79.8589 22.2986 79.6501 22.2986C78.3082 22.2986 76.8776 22.7353 76.8776 23.8686C76.8776 24.5392 77.2849 24.9707 78.0733 24.9707H78.0785Z" fill="#083874"/>
      <path id="Vector_7" d="M88.5209 19.2261H87.5759C87.1791 19.2261 86.8606 18.9038 86.8606 18.5139V15.4935C86.8606 15.0828 87.1948 14.7553 87.602 14.7553H88.5209C88.5836 14.7553 88.6358 14.7033 88.6358 14.641V14.1471C88.6358 9.20839 93.0112 8.45459 95.8724 8.45459C96.3736 8.45459 96.8018 8.47538 97.1411 8.50658C97.5954 8.54297 97.9452 8.92247 97.9452 9.37994V12.1768C97.9452 12.6343 97.5588 12.9982 97.0994 12.9722C96.9949 12.967 96.8853 12.9618 96.7756 12.9618C95.7836 12.9618 94.7342 13.2217 94.7342 14.2095V14.6461C94.7342 14.7085 94.7864 14.7605 94.849 14.7605H96.5303C96.9845 14.7605 97.3552 15.1296 97.3552 15.5819V18.5295C97.3552 18.9194 97.0367 19.2365 96.6451 19.2365H94.8438C94.7811 19.2365 94.7289 19.2885 94.7289 19.3509V27.8039C94.7289 28.2509 94.3687 28.6096 93.9197 28.6096H89.4242C88.9856 28.6096 88.6306 28.2561 88.6306 27.8195V19.3509C88.6306 19.2885 88.5784 19.2365 88.5157 19.2365L88.5209 19.2261Z" fill="#083874"/>
      <path id="Vector_8" d="M47.7068 28.1313C47.6546 28.1054 47.5971 28.0742 47.5449 28.043C47.5971 28.0742 47.6493 28.1054 47.7068 28.1313Z" fill="#083874"/>
      <path id="Vector_9" d="M52.3381 24.1283C52.1345 24.0608 51.9465 23.9516 51.7847 23.78C51.9413 23.9464 52.1345 24.0556 52.3381 24.1283Z" fill="#083874"/>
      <path id="Vector_10" d="M112.283 11.4646C113.055 11.4646 113.671 12.0884 113.671 12.863C113.671 13.6376 113.055 14.2719 112.283 14.2719C111.51 14.2719 110.909 13.6428 110.909 12.863C110.909 12.0832 111.526 11.4646 112.283 11.4646ZM112.283 13.8768C112.826 13.8768 113.243 13.4297 113.243 12.863C113.243 12.2964 112.826 11.8545 112.283 11.8545C111.74 11.8545 111.343 12.3016 111.343 12.863C111.343 13.4245 111.75 13.8768 112.283 13.8768ZM111.787 12.4004C111.787 12.2652 111.86 12.1924 111.995 12.1924H112.408C112.695 12.1924 112.873 12.364 112.873 12.6291C112.873 12.8422 112.716 12.9462 112.653 12.967C112.653 12.967 112.674 12.9878 112.706 13.0502L112.815 13.2633C112.893 13.4089 112.852 13.5129 112.721 13.5129H112.669C112.549 13.5129 112.471 13.4609 112.424 13.3517L112.303 13.0606H112.199V13.2997C112.199 13.4349 112.136 13.5077 112.006 13.5077H111.985C111.849 13.5077 111.792 13.4349 111.792 13.2997V12.4004H111.787ZM112.303 12.7902C112.403 12.7902 112.455 12.7331 112.455 12.6291C112.455 12.5251 112.403 12.4731 112.309 12.4731H112.199V12.7902H112.303Z" fill="#083874"/>
      <path id="Vector_11" d="M53.0115 14.7762H51.3721V14.771L53.0115 14.7762Z" fill="#083874"/>
      <path id="Vector_12" d="M51.2782 21.4303V22.3141C51.2782 22.756 51.3513 23.0991 51.4766 23.3538C51.4818 23.3694 51.4923 23.385 51.4975 23.4006C51.5445 23.489 51.5967 23.5669 51.6541 23.6397C51.6646 23.6501 51.675 23.6657 51.6855 23.6761C51.6959 23.6865 51.7064 23.6969 51.7168 23.7073C51.8787 23.8789 52.0666 23.988 52.2702 24.0556C52.5783 24.1596 52.9125 24.1648 53.2101 24.1648H53.8575C54.0872 24.1648 54.27 24.3467 54.27 24.5755V28.5056C54.27 28.7552 54.0663 28.9579 53.8157 28.9579C53.4085 28.9579 52.761 28.9579 51.9674 28.9579C50.9075 28.9579 49.6544 28.8435 48.4797 28.4017C48.4431 28.3861 48.4066 28.3757 48.3648 28.3601C48.3596 28.3601 48.3544 28.3601 48.3491 28.3549C48.3282 28.3445 48.3021 28.3393 48.2813 28.3289C48.2551 28.3185 48.2238 28.3081 48.1977 28.2925C48.1716 28.2821 48.1403 28.2665 48.1142 28.2561C47.9732 28.1937 47.8375 28.1313 47.7017 28.0586C47.6495 28.0274 47.5921 28.0014 47.5398 27.9702C47.4876 27.939 47.4354 27.9078 47.3832 27.8766C47.3675 27.8662 47.3467 27.8558 47.331 27.8454C47.3206 27.835 47.3049 27.8298 47.2944 27.8194C47.0908 27.6895 46.8872 27.5439 46.6992 27.3775C46.6992 27.3775 46.6992 27.3723 46.7097 27.3671C45.7229 26.4938 45.0493 25.1629 45.0493 23.1563V19.3093C45.0493 19.2053 44.9606 19.1169 44.8562 19.1169H43.0131C42.7102 19.1169 42.4648 18.8726 42.4648 18.5711V15.977V15.3739C42.4648 14.932 42.6789 14.5213 43.0392 14.2666L50.0304 9.31232C50.5629 8.93282 51.3043 9.31232 51.3043 9.96735V12.8942L51.2991 14.5629C51.2991 14.6357 51.3565 14.6929 51.4296 14.6929H54.1029C54.3848 14.6929 54.6093 14.9216 54.6093 15.1972V18.5919C54.6093 18.8882 54.3692 19.1273 54.0716 19.1273H51.4975C51.3774 19.1221 51.2782 19.2209 51.2782 19.3405V21.4199V21.4303Z" fill="#083874"/>
    </g>
    <g id="Logo_-_Sunny_-_Knockout">
      <path id="Vector_13" d="M112.303 13.8924C112.846 13.8924 113.263 13.4453 113.263 12.8786C113.263 12.312 112.846 11.8701 112.303 11.8701C111.76 11.8701 111.363 12.3172 111.363 12.8786C111.363 13.4401 111.77 13.8924 112.303 13.8924ZM111.807 12.416C111.807 12.2808 111.88 12.208 112.015 12.208H112.428C112.715 12.208 112.893 12.3796 112.893 12.6447C112.893 12.8579 112.736 12.9618 112.673 12.9826C112.673 12.9826 112.694 13.0034 112.726 13.0658L112.835 13.2789C112.913 13.4245 112.872 13.5285 112.741 13.5285H112.689C112.569 13.5285 112.491 13.4765 112.444 13.3673L112.324 13.0762H112.219V13.3153C112.219 13.4505 112.156 13.5233 112.026 13.5233H112.005C111.869 13.5233 111.812 13.4505 111.812 13.3153V12.416H111.807Z" fill="#FFEB00"/>
      <path id="Vector_14" d="M34.4652 17.1052C33.4731 17.1052 32.8518 17.7343 32.6116 18.722C32.5647 18.9039 32.7109 19.0807 32.8988 19.0807H35.8122C36.0263 19.0807 36.1882 18.8936 36.1516 18.6856C35.9898 17.7031 35.3215 17.1052 34.4652 17.1052Z" fill="#FFEB00"/>
      <path id="Vector_15" d="M79.6599 22.3037C78.3181 22.3037 76.8875 22.7404 76.8875 23.8737C76.8875 24.5443 77.2947 24.9758 78.0831 24.9758C79.2213 24.9758 80.0358 23.8425 80.0358 22.7976V22.6832C80.0358 22.4753 79.8635 22.3037 79.6547 22.3037H79.6599Z" fill="#FFEB00"/>
      <path id="Vector_16" d="M17.7417 13.5388H16.1753C15.8986 13.5388 15.6741 13.7624 15.6741 14.0379V17.9888C15.6741 18.2956 15.9247 18.5399 16.2275 18.5399H17.6529C19.1618 18.5399 19.9293 17.4794 19.9293 16.0394C19.9293 14.5993 19.1932 13.5388 17.7417 13.5388Z" fill="#FFEB00"/>
      <path id="Vector_17" d="M106.032 17.1052C105.04 17.1052 104.419 17.7343 104.179 18.722C104.132 18.9039 104.278 19.0807 104.466 19.0807H107.379C107.593 19.0807 107.755 18.8936 107.719 18.6856C107.557 17.7031 106.888 17.1052 106.032 17.1052Z" fill="#FFEB00"/>
      <path id="Vector_18" d="M112.475 12.6447C112.475 12.5408 112.423 12.4888 112.329 12.4888H112.219V12.8059H112.324C112.423 12.8059 112.475 12.7487 112.475 12.6447Z" fill="#FFEB00"/>
      <path id="Vector_19" d="M136.68 0.942627H1.15388C0.516898 0.942627 0 1.45729 0 2.09152V26.9409C0 32.5243 4.54766 37.0523 10.1552 37.0523H147.013C147.561 37.0523 148 36.6104 148 36.0697V12.2184C148 5.99049 142.93 0.942627 136.675 0.942627H136.68ZM112.303 11.4802C113.075 11.4802 113.692 12.1041 113.692 12.8787C113.692 13.6533 113.075 14.2875 112.303 14.2875C111.53 14.2875 110.93 13.6585 110.93 12.8787C110.93 12.0989 111.546 11.4802 112.303 11.4802ZM19.6369 23.5722H16.0969C15.862 23.5722 15.674 23.7594 15.674 23.9933V27.7571C15.674 28.2926 15.2407 28.7241 14.7029 28.7241H10.1396C9.66965 28.7241 9.29373 28.3446 9.29373 27.8819V9.42158C9.29373 8.93291 9.69054 8.53781 10.1813 8.53781H18.6606C24.054 8.53781 25.9859 12.9982 25.9859 15.8991C25.9859 20.5362 23.3753 23.5774 19.6421 23.5774L19.6369 23.5722ZM41.6129 21.5084C41.5868 21.8619 41.2892 22.1322 40.9342 22.1322C40.9342 22.1322 34.3764 22.1322 32.7943 22.1322C32.6116 22.1322 32.4758 22.2986 32.5228 22.4753C32.8726 23.8789 34.0631 24.456 35.5772 24.456C37.0914 24.456 38.3445 23.8893 39.0389 23.4839C39.373 23.2915 39.8012 23.4163 39.9839 23.7594C39.9839 23.7594 40.8715 25.4593 41.3519 26.3795C41.5346 26.7278 41.4145 27.1489 41.0856 27.3568C40.1614 27.9443 38.1199 28.958 35.0864 28.958C29.0768 28.958 26.3305 25.0954 26.3305 21.1133C26.3305 16.7568 29.3379 13.2998 34.5017 13.2998C39.2895 13.2998 41.6808 16.3773 41.6808 20.2711C41.6808 20.6194 41.6495 21.1185 41.6181 21.5084H41.6129ZM54.6241 18.6127C54.6241 18.9091 54.384 19.1482 54.0864 19.1482H51.5123C51.3922 19.143 51.293 19.2418 51.293 19.3613V21.4408V22.3246C51.293 22.7664 51.3661 23.1096 51.4914 23.3643C51.4966 23.3799 51.5071 23.3955 51.5123 23.4111C51.5593 23.4994 51.6115 23.5774 51.6689 23.6502C51.6794 23.6606 51.6898 23.6762 51.7003 23.6866C51.7107 23.697 51.7212 23.7074 51.7316 23.7178C51.8935 23.8893 52.0814 23.9985 52.285 24.0661C52.5931 24.1701 52.9273 24.1753 53.2249 24.1753H53.8723C54.102 24.1753 54.2848 24.3572 54.2848 24.586V28.5161C54.2848 28.7657 54.0811 28.9684 53.8305 28.9684C53.4233 28.9684 52.7758 28.9684 51.9822 28.9684C50.9223 28.9684 49.6692 28.854 48.4945 28.4121C48.4579 28.3966 48.4214 28.3862 48.3796 28.3706C48.3744 28.3706 48.3692 28.3706 48.3639 28.3654C48.343 28.355 48.3169 28.3498 48.2961 28.3394C48.2699 28.329 48.2386 28.3186 48.2125 28.303C48.1864 28.2926 48.1551 28.277 48.129 28.2666C47.988 28.2042 47.8523 28.1418 47.7165 28.069C47.6643 28.0378 47.6069 28.0119 47.5546 27.9807C47.5024 27.9495 47.4502 27.9183 47.398 27.8871C47.3823 27.8767 47.3615 27.8663 47.3458 27.8559C47.3354 27.8455 47.3197 27.8403 47.3093 27.8299C47.1056 27.6999 46.902 27.5544 46.714 27.388C46.714 27.388 46.714 27.3828 46.7245 27.3776C45.7377 26.5043 45.0641 25.1734 45.0641 23.1667V19.3198C45.0641 19.2158 44.9754 19.1274 44.871 19.1274H43.0279C42.725 19.1274 42.4796 18.8831 42.4796 18.5816V15.9874V15.3844C42.4796 14.9425 42.6937 14.5318 43.054 14.2771L50.0452 9.32281C50.5777 8.94331 51.3191 9.32281 51.3191 9.97783V12.9047L51.3139 14.5734C51.3139 14.6462 51.3713 14.7034 51.4444 14.7034H54.1177C54.3996 14.7034 54.6241 14.9321 54.6241 15.2076V18.6023V18.6127ZM70.5906 22.7924C70.46 30.3772 60.2056 30.294 55.8563 26.8318C55.5483 26.5874 55.47 26.1559 55.6632 25.818C56.1278 24.9967 57.0155 23.4111 57.5115 22.5325C57.689 22.2154 58.1119 22.1218 58.4043 22.3402C59.224 22.9432 60.8948 23.9569 62.8632 23.9985C63.5785 23.9985 64.4348 23.8166 64.4348 22.9588C64.4348 22.1738 63.6359 21.8723 62.315 21.368C59.4172 20.4011 55.6162 18.4204 55.8041 14.7294C55.7571 7.98156 65.1762 7.25375 69.515 10.1338C69.9327 10.4093 70.0945 10.9396 69.9066 11.3971C69.5568 12.234 68.972 13.6533 68.5908 14.5682C68.4133 14.9997 67.886 15.1661 67.4892 14.9217C66.6329 14.3915 65.1396 13.6429 63.5837 13.6429C62.4768 13.6429 61.9599 13.9652 61.9599 14.6514C61.9599 15.4 62.7274 15.6807 63.8865 16.107C66.9305 17.1207 70.7629 19.0026 70.5853 22.7976L70.5906 22.7924ZM85.9983 28.0119C85.9983 28.3446 85.7268 28.6097 85.3979 28.6097H80.9494C80.6622 28.6097 80.4273 28.3758 80.4273 28.0898V27.7103C80.4273 27.3048 80.4847 26.8682 80.4847 26.8682H80.4273C80.4273 26.8682 79.2891 28.958 76.313 28.958C73.7755 28.958 71.2641 27.362 71.2641 24.2532C71.2641 19.6057 77.4512 19.2834 79.7851 19.2834C79.8477 19.2834 79.8999 19.2314 79.8999 19.169V19.0234C79.8999 18.0669 79.2003 17.6874 78.0308 17.6874C76.6941 17.6874 75.3001 18.2696 74.5378 18.6491C74.2088 18.8103 73.8173 18.6699 73.6711 18.3372L72.5224 15.7171C72.3501 15.322 72.512 14.8593 72.9036 14.667C73.9269 14.1523 76.0728 13.305 79.028 13.305C83.4347 13.305 86.0035 15.3948 86.0035 19.2626V28.0171L85.9983 28.0119ZM94.8691 14.7606H96.5503C97.0046 14.7606 97.3753 15.1297 97.3753 15.5819V18.5296C97.3753 18.9195 97.0568 19.2366 96.6652 19.2366H94.8639C94.8012 19.2366 94.749 19.2886 94.749 19.3509V27.8039C94.749 28.251 94.3888 28.6097 93.9397 28.6097H89.4443C89.0057 28.6097 88.6507 28.2562 88.6507 27.8195V19.3509C88.6507 19.2886 88.5985 19.2366 88.5358 19.2366H87.5908C87.194 19.2366 86.8755 18.9143 86.8755 18.5244V15.504C86.8755 15.0933 87.2096 14.7658 87.6169 14.7658H88.5358C88.5985 14.7658 88.6507 14.7138 88.6507 14.6514V14.1575C88.6507 9.21883 93.026 8.46503 95.8872 8.46503C96.3885 8.46503 96.8166 8.48583 97.156 8.51702C97.6102 8.55341 97.9601 8.93291 97.9601 9.39039V12.1872C97.9601 12.6447 97.5737 13.0086 97.1142 12.9826C97.0098 12.9774 96.9002 12.9722 96.7905 12.9722C95.7985 12.9722 94.749 13.2322 94.749 14.2199V14.6566C94.749 14.719 94.8012 14.771 94.8639 14.771L94.8691 14.7606ZM113.185 21.5084C113.159 21.8619 112.861 22.1322 112.506 22.1322C112.506 22.1322 105.948 22.1322 104.366 22.1322C104.184 22.1322 104.048 22.2986 104.095 22.4753C104.445 23.8789 105.635 24.456 107.149 24.456C108.664 24.456 109.917 23.8893 110.611 23.4839C110.945 23.2915 111.373 23.4163 111.556 23.7594C111.556 23.7594 112.444 25.4593 112.924 26.3795C113.107 26.7278 112.987 27.1489 112.658 27.3568C111.734 27.9443 109.692 28.958 106.659 28.958C100.649 28.958 97.9026 25.0954 97.9026 21.1133C97.9026 16.7568 100.91 13.2998 106.074 13.2998C110.862 13.2998 113.253 16.3773 113.253 20.2711C113.253 20.6194 113.222 21.1185 113.19 21.5084H113.185ZM139.046 27.7987C139.046 28.3706 138.581 28.8332 138.007 28.8332H131.699C131.621 28.8332 131.558 28.7709 131.558 28.6929C131.558 28.5837 131.595 28.4797 131.767 28.4433C134.336 27.8091 135.323 25.5997 135.323 24.1649C135.323 21.3264 133.109 19.3717 130.493 18.7011C127.778 18.0045 123.429 18.7427 121.586 21.0457C121.335 21.3576 121.236 21.7735 121.356 22.1582C121.56 22.8132 122.192 22.938 122.766 22.9848C123.842 23.0732 124.943 23.0004 125.977 23.3071C127.011 23.6086 128.003 24.4196 128.086 25.4905C128.186 26.8162 126.906 27.8351 125.664 28.3238C124.792 28.6669 123.977 28.7761 123.288 28.8384H118.532C117.957 28.8384 117.493 28.3758 117.493 27.8039V14.745C117.493 14.3343 117.733 13.9652 118.109 13.7988L127.794 8.65218C127.836 8.63139 127.883 8.6054 127.925 8.5898C128.154 8.50662 128.405 8.50662 128.635 8.5898C128.682 8.6054 128.723 8.63139 128.765 8.65218L138.419 13.7988C138.795 13.9652 139.035 14.3343 139.035 14.745V27.8039L139.046 27.7987Z" fill="#FFEB00"/>
    </g>
  </g>
  <defs>
    <clipPath id="clip0_4075_15778">
      <rect width="148" height="36.1148" fill="white" transform="translate(0 0.942627)"/>
    </clipPath>
  </defs>
</svg>
